<svg xmlns="http://www.w3.org/2000/svg" fill="none" viewBox="0 0 1280 680"><path fill="url(#paint0_linear)" d="M2281.67 0H-1003v900h3284.67V0z"/><path fill="#FEE" d="M-497.24 269.82c46.54-5 161.71 25 172.18 35 10.47 10-45.37 34 30.25 38s-10.47-62 65.14-37 57 22 96.56 37 83.76 54 61.66 9c-22.1-45-23.27-55 0-47s48.86 15 114 34 136.12 31 145.45 22c9.33-9-32.57-59 53.51-46s165.2 33 214.06 47c48.86 14 5.82-46 145.42-41s144.26 7 244.31 18c100.05 11 225.69 40 231.5 42 5.81 2-43-62 80.28-56s273.92-40 273.92-40v127c0 44-69 56-150.63 122-184.54 149.22-402.52-4-567.72-7-165.2-3-407.17-29-452.54-34-45.37-5-148.91 3-268.74-5-119.83-8-210.57-16-221-16-10.43 0 104.63 18 54.63 27-50 9-83.76 8-150.07 5-66.31-3-243.93-13-243.93-13s3.18-181 9-239 62.76 18 62.76 18z" opacity=".05"/><defs><linearGradient id="paint0_linear" x1="373.13" x2="905.54" y1="-420.72" y2="1320.72" gradientUnits="userSpaceOnUse"><stop stop-color="#FFB398"/><stop offset=".19" stop-color="#FBB199"/><stop offset=".35" stop-color="#F0AA9B"/><stop offset=".52" stop-color="#DE9FA0"/><stop offset=".67" stop-color="#C48FA6"/><stop offset=".83" stop-color="#A37AAE"/><stop offset=".98" stop-color="#7A61B8"/><stop offset="1" stop-color="#745DB9"/></linearGradient></defs></svg>