<svg xmlns="http://www.w3.org/2000/svg" fill="none" viewBox="0 0 1280 680"><path fill="url(#paint0_linear)" d="M-708-220h2695.54v900H-708v-900z"/><path fill="#fff" d="M542.83 163.69a.9.9 0 100-1.8.9.9 0 000 1.8z"/><path fill="#fff" d="M454.64 153.3a1.77 1.77 0 100-3.55 1.77 1.77 0 000 3.54zM340.38 115.8a2.9 2.9 0 100-5.8 2.9 2.9 0 000 5.8z" opacity=".59"/><path fill="#fff" d="M191.35 152.87a1.35 1.35 0 100-2.7 1.35 1.35 0 000 2.7z"/><path fill="#fff" d="M1067.79 121.9a1.93 1.93 0 100-3.85 1.93 1.93 0 000 3.86z" opacity=".57"/><path fill="#fff" d="M1078.41 123.52c.36 0 .65-.29.65-.64a.65.65 0 00-1.29 0c0 .35.29.64.64.64z"/><path fill="#fff" d="M1088.39 181.45a1.6 1.6 0 100-3.21 1.6 1.6 0 000 3.21zM955.78 163.1a1.6 1.6 0 100-3.21 1.6 1.6 0 000 3.22zM1064.89 222a1.6 1.6 0 100-3.2 1.6 1.6 0 000 3.2z" opacity=".8"/><path fill="#fff" d="M274.71 163.43a1.93 1.93 0 100-3.86 1.93 1.93 0 000 3.86zM697 211.39a1.93 1.93 0 100-3.87 1.93 1.93 0 000 3.87zM643.9 128.67a1.93 1.93 0 100-3.86 1.93 1.93 0 000 3.86z"/><defs><linearGradient id="paint0_linear" x1="639.77" x2="639.77" y1="-220" y2="680" gradientUnits="userSpaceOnUse"><stop stop-color="#120427"/><stop offset="1" stop-color="#2E3192"/></linearGradient></defs></svg>