<svg xmlns="http://www.w3.org/2000/svg" fill="none" viewBox="0 0 150 150"><path fill="#fff" d="M44.31 75.31a30.5 30.5 0 013.82-14.83h53.75a30.7 30.7 0 11-57.57 14.83z"/><path fill="#fff" d="M105.69 75a30.5 30.5 0 01-3.81 14.83H48.12A30.7 30.7 0 11105.7 75z"/><path fill="#EFEFEF" d="M55.45 78.2a2.26 2.26 0 100-4.53 2.26 2.26 0 000 4.53zM72.74 81.61a3.4 3.4 0 100-6.78 3.4 3.4 0 000 6.78zM91.16 70.84a2.26 2.26 0 100-4.52 2.26 2.26 0 000 4.52zM62.53 66.22a4.82 4.82 0 100-9.64 4.82 4.82 0 000 9.64z"/><path fill="#fff" d="M74.97 119.11a44.11 44.11 0 100-88.23 44.11 44.11 0 000 88.23z" opacity=".08"/><path fill="#fff" d="M75 125.8a50.8 50.8 0 100-101.6 50.8 50.8 0 000 101.6z" opacity=".08"/><path fill="#fff" d="M75 137.24a62.24 62.24 0 100-124.48 62.24 62.24 0 000 124.48z" opacity=".08"/><path fill="#fff" d="M75 150A75 75 0 1075 0a75 75 0 000 150z" opacity=".08"/></svg>