<svg xmlns="http://www.w3.org/2000/svg" fill="none" viewBox="0 0 1280 680"><g clip-path="url(#clip0)"><path fill="url(#paint0_linear)" d="M-466.14 0h2207.31v900h-2207.3V0z"/><path fill="#FFF6E1" d="M323.56 98.52H-34.46a2.81 2.81 0 000 5.61h358.02a2.8 2.8 0 000-5.61zm-32.61 83.88h-74.28a2.8 2.8 0 010-5.61h74.28a2.8 2.8 0 010 5.61zm154-48.92H268.13a6.97 6.97 0 100 13.96h176.84a6.98 6.98 0 100-13.96zm968.07 1.1h-176.84a6.97 6.97 0 000 13.94h176.84a7 7 0 006.98-6.97 7 7 0 00-6.98-6.98zm-175.93 54.35h-180.46a5.16 5.16 0 010-10.33h180.46a5.16 5.16 0 010 10.33zm67.77-84.8h-176.84a6.95 6.95 0 00-6.98 6.98 7 7 0 006.98 6.97h176.84a7 7 0 006.44-4.3 7 7 0 00-6.44-9.65zM82.41 225.34H-94.43a6.98 6.98 0 000 13.96H82.4a6.98 6.98 0 000-13.96zM584.1 90H407.27a6.98 6.98 0 000 13.95H584.1a6.98 6.98 0 000-13.95zm-37.33 95.66H363.06a3.53 3.53 0 100 7.07h183.72a3.53 3.53 0 100-7.06zM-30.1 127.5h-102.91a6.98 6.98 0 000 13.96h102.91a6.98 6.98 0 000-13.96z" opacity=".13"/></g><defs><linearGradient id="paint0_linear" x1="637.52" x2="637.52" y1="900" y2="0" gradientUnits="userSpaceOnUse"><stop stop-color="#ACFFE2"/><stop offset="1" stop-color="#39719D"/></linearGradient><clipPath id="clip0"><path fill="#fff" d="M0 0h2201.44v900H0z" transform="translate(-461)"/></clipPath></defs></svg>