<svg xmlns="http://www.w3.org/2000/svg" fill="none" viewBox="0 0 150 150"><path fill="url(#paint0_linear)" d="M75 110.71a35.71 35.71 0 100-71.42 35.71 35.71 0 000 71.42z"/><path fill="url(#paint1_linear)" d="M75 129.73a54.73 54.73 0 100-109.46 54.73 54.73 0 000 109.46z" opacity=".1"/><path fill="url(#paint2_linear)" d="M75 123.52a48.52 48.52 0 100-97.04 48.52 48.52 0 000 97.04z" opacity=".1"/><path fill="url(#paint3_linear)" d="M75 150A75 75 0 1075 0a75 75 0 000 150z" opacity=".1"/><path fill="url(#paint4_linear)" d="M75 150A75 75 0 1075 0a75 75 0 000 150z" opacity=".1"/><defs><linearGradient id="paint0_linear" x1="39.29" x2="110.71" y1="75" y2="75" gradientUnits="userSpaceOnUse"><stop stop-color="#FFB"/><stop offset=".19" stop-color="#FFECB6"/><stop offset=".45" stop-color="#FFD9B0"/><stop offset=".72" stop-color="#FFCEAD"/><stop offset="1" stop-color="#FFCAAC"/></linearGradient><linearGradient id="paint1_linear" x1="20.27" x2="129.73" y1="75" y2="75" gradientUnits="userSpaceOnUse"><stop stop-color="#FFB"/><stop offset=".19" stop-color="#FFECB6"/><stop offset=".45" stop-color="#FFD9B0"/><stop offset=".72" stop-color="#FFCEAD"/><stop offset="1" stop-color="#FFCAAC"/></linearGradient><linearGradient id="paint2_linear" x1="26.48" x2="123.52" y1="75" y2="75" gradientUnits="userSpaceOnUse"><stop stop-color="#FFB"/><stop offset=".19" stop-color="#FFECB6"/><stop offset=".45" stop-color="#FFD9B0"/><stop offset=".72" stop-color="#FFCEAD"/><stop offset="1" stop-color="#FFCAAC"/></linearGradient><linearGradient id="paint3_linear" x1=".04" x2="149.97" y1="77.26" y2="72.71" gradientUnits="userSpaceOnUse"><stop stop-color="#FFB"/><stop offset=".19" stop-color="#FFECB6"/><stop offset=".45" stop-color="#FFD9B0"/><stop offset=".72" stop-color="#FFCEAD"/><stop offset="1" stop-color="#FFCAAC"/></linearGradient><linearGradient id="paint4_linear" x1=".04" x2="149.97" y1="77.26" y2="72.71" gradientUnits="userSpaceOnUse"><stop stop-color="#FFB"/><stop offset=".19" stop-color="#FFECB6"/><stop offset=".45" stop-color="#FFD9B0"/><stop offset=".72" stop-color="#FFCEAD"/><stop offset="1" stop-color="#FFCAAC"/></linearGradient></defs></svg>